<svg id="Layer_2" data-name="Layer 2" xmlns="http://www.w3.org/2000/svg" viewBox="0 0 1822.97 1237.25">
    <defs>
        <style>

            .cls-1{
            fill:none;
            stroke:#FFF;
            stroke-miterlimit:10;
            }

            .cls-7,
            .cls-8,
            .cls-9{
            fill:none;
            stroke: #32cdff;
            stroke-miterlimit:10;
            }

            .cls-1,
            .cls-7,
            .cls-8,
            .cls-9.cls-1{stroke-width:40px;}.cls-2{fill:#ffcf00;}.cls-3{fill:#FFF;}.cls-4{fill:#ff2a8a;}.cls-5{fill:red;}.cls-6{fill:#32cdff;}.cls-7{stroke-width:15px;}.cls-8{stroke-width:39px;}.cls-9{stroke-width:38px;}
        </style>
    </defs>
    <title>deutsch 3</title>
    <path id="FACE" class="cls-1" d="M1500.75,133" transform="translate(-588.52 -717.85)"/>
    <path class="cls-2"
          d="M1128.4,1325.94v543.77a65.39,65.39,0,0,0,65.39,65.39h621.46a65.39,65.39,0,0,0,65.39-65.39v-36.65l-286.91-85.39c-52.89,25.49-101.64,33.34-101.64,33.34h-.16s-226.9-36.56-232.68-207.84C1241.39,1550.37,1158.92,1440.93,1128.4,1325.94Z"
          transform="translate(-588.52 -717.85)"/>
    <path d="M1128.4,1177.31v148.63c30.52,115,113,224.43,130.85,247.23,0-.23,0-.47,0-.7-5.18-171.88-1.11-171.91-1.11-171.91l234.38,1.16,12.34-.06,109.49-367.92c-35.33-4.39-75.06-6.74-119.61-6.74C1260.33,1027,1159.62,1092,1128.4,1177.31Z"
          transform="translate(-588.52 -717.85)"/>
    <path d="M1128.4,955v222.33C1159.62,1092,1260.33,1027,1494.72,1027c44.55,0,84.28,2.35,119.61,6.74l42.9-144.16H1193.79A65.4,65.4,0,0,0,1128.4,955Z"
          transform="translate(-588.52 -717.85)"/>
    <path class="cls-3"
          d="M1259.25,1573.17C1265,1744.45,1491.93,1781,1491.93,1781h.16s48.75-7.85,101.64-33.34l-113.58-33.8a65.3,65.3,0,0,1-42.67-40,95.38,95.38,0,0,1-41-78.41h50.66l57.68-193.84-12.34.06-234.38-1.16s-4.07,0,1.11,171.91C1259.24,1572.7,1259.24,1572.94,1259.25,1573.17Z"
          transform="translate(-588.52 -717.85)"/>
    <path d="M1447.16,1595.5H1396.5a95.38,95.38,0,0,0,41,78.41,65.11,65.11,0,0,1-1.35-41.36Z"
          transform="translate(-588.52 -717.85)"/>
    <path d="M1436.13,1632.55a65.11,65.11,0,0,0,1.35,41.36,95.5,95.5,0,0,0,150-78.41H1447.16ZM1453,1643a40,40,0,1,1,40,40A40,40,0,0,1,1453,1643Z"
          transform="translate(-588.52 -717.85)"/>
    <path class="cls-3"
          d="M1504.84,1401.66l-57.68,193.84H1587.5a95.5,95.5,0,0,1-150,78.41,65.3,65.3,0,0,0,42.67,40l113.58,33.8c60.26-29,125.88-81,130.82-170.29.09-1.61.16-3.24.21-4.88,5.16-171.88,1.1-171.91,1.1-171.91Z"
          transform="translate(-588.52 -717.85)"/>
    <circle class="cls-4" cx="904.48" cy="925.15" r="40"/>
    <path class="cls-5"
          d="M1614.33,1033.74l-109.49,367.92,221-1.07s4.06,0-1.1,171.91c0,1.64-.12,3.27-.21,4.88l2.19.12S2120,1096.56,1614.33,1033.74Z"
          transform="translate(-588.52 -717.85)"/>
    <path class="cls-5"
          d="M1593.73,1747.67l286.91,85.39V955a65.4,65.4,0,0,0-65.39-65.4h-158l-42.9,144.16c505.69,62.82,112.41,543.76,112.41,543.76l-2.19-.12C1719.61,1666.7,1654,1718.64,1593.73,1747.67Z"
          transform="translate(-588.52 -717.85)"/>
    <path class="cls-6"
          d="M1688.47,784.6l-31.24,105h158a65.4,65.4,0,0,1,65.39,65.4v878.08L2055.08,1885a65.39,65.39,0,0,0,81.33-44L2388.75,993a65.39,65.39,0,0,0-44-81.33L1769.8,740.58A65.39,65.39,0,0,0,1688.47,784.6Z"
          transform="translate(-588.52 -717.85)"/>
    <path class="cls-1"
          d="M1880.64,1833.06,2055.08,1885a65.39,65.39,0,0,0,81.33-44L2388.75,993a65.39,65.39,0,0,0-44-81.33L1769.8,740.58a65.39,65.39,0,0,0-81.33,44l-31.24,105"
          transform="translate(-588.52 -717.85)"/>
    <path class="cls-1"
          d="M1128.4,1325.94v543.77a65.39,65.39,0,0,0,65.39,65.39h621.46a65.39,65.39,0,0,0,65.39-65.39V955a65.4,65.4,0,0,0-65.39-65.4H1193.79A65.4,65.4,0,0,0,1128.4,955v371Z"
          transform="translate(-588.52 -717.85)"/>
    <path class="cls-7" d="M1670.5,1539.62a60.25,60.25,0,0,0-120.5,0" transform="translate(-588.52 -717.85)"/>
    <path class="cls-7" d="M1396.5,1595.5a95.5,95.5,0,0,0,191,0" transform="translate(-588.52 -717.85)"/>
    <path class="cls-8"
          d="M1504.84,1401.66l-12.34.06-234.38-1.16s-4.07,0,1.11,171.91c0,.23,0,.47,0,.7C1265,1744.45,1491.93,1781,1491.93,1781h.16s48.75-7.85,101.64-33.34c60.26-29,125.88-81,130.82-170.29.09-1.61.16-3.24.21-4.88,5.16-171.88,1.1-171.91,1.1-171.91Z"
          transform="translate(-588.52 -717.85)"/>
    <path class="cls-7" d="M1438.5,1539.62a60.25,60.25,0,0,0-120.5,0" transform="translate(-588.52 -717.85)"/>
    <path class="cls-9"
          d="M1262.7,1577.5s-1.22-1.5-3.45-4.33c-17.86-22.8-100.33-132.24-130.85-247.23-13.48-50.79-16.83-102.66,0-148.63C1159.62,1092,1260.33,1027,1494.72,1027c44.55,0,84.28,2.35,119.61,6.74,505.69,62.82,112.41,543.76,112.41,543.76"
          transform="translate(-588.52 -717.85)"/>
    <path id="FACE-2" data-name="FACE" class="cls-1" d="M1499.25,133" transform="translate(-588.52 -717.85)"/>
    <path class="cls-2"
          d="M1871.6,1325.94v543.77a65.39,65.39,0,0,1-65.39,65.39H1184.75a65.39,65.39,0,0,1-65.39-65.39v-36.65l286.91-85.39c52.89,25.49,101.64,33.34,101.64,33.34h.16s226.9-36.56,232.68-207.84C1758.61,1550.37,1841.08,1440.93,1871.6,1325.94Z"
          transform="translate(-588.52 -717.85)"/>
    <path d="M1871.6,1177.31v148.63c-30.52,115-113,224.43-130.85,247.23,0-.23,0-.47,0-.7,5.18-171.88,1.11-171.91,1.11-171.91l-234.38,1.16-12.34-.06-109.49-367.92c35.33-4.39,75.06-6.74,119.61-6.74C1739.67,1027,1840.38,1092,1871.6,1177.31Z"
          transform="translate(-588.52 -717.85)"/>
    <path d="M1871.6,955v222.33C1840.38,1092,1739.67,1027,1505.28,1027c-44.55,0-84.28,2.35-119.61,6.74l-42.9-144.16h463.44A65.4,65.4,0,0,1,1871.6,955Z"
          transform="translate(-588.52 -717.85)"/>
    <path class="cls-3"
          d="M1740.75,1573.17C1735,1744.45,1508.07,1781,1508.07,1781h-.16s-48.75-7.85-101.64-33.34l113.58-33.8a65.3,65.3,0,0,0,42.67-40,95.38,95.38,0,0,0,41-78.41h-50.66l-57.68-193.84,12.34.06,234.38-1.16s4.07,0-1.11,171.91C1740.76,1572.7,1740.76,1572.94,1740.75,1573.17Z"
          transform="translate(-588.52 -717.85)"/>
    <path d="M1552.84,1595.5h50.66a95.38,95.38,0,0,1-41,78.41,65.11,65.11,0,0,0,1.35-41.36Z"
          transform="translate(-588.52 -717.85)"/>
    <path d="M1563.87,1632.55a65.11,65.11,0,0,1-1.35,41.36,95.5,95.5,0,0,1-150-78.41h140.34ZM1547,1643a40,40,0,1,0-40,40A40,40,0,0,0,1547,1643Z"
          transform="translate(-588.52 -717.85)"/>
    <path class="cls-3"
          d="M1495.16,1401.66l57.68,193.84H1412.5a95.5,95.5,0,0,0,150,78.41,65.3,65.3,0,0,1-42.67,40l-113.58,33.8c-60.26-29-125.88-81-130.82-170.29-.09-1.61-.16-3.24-.21-4.88-5.16-171.88-1.1-171.91-1.1-171.91Z"
          transform="translate(-588.52 -717.85)"/>
    <circle class="cls-4" cx="918.48" cy="925.15" r="40"/>
    <path class="cls-5"
          d="M1385.67,1033.74l109.49,367.92-221-1.07s-4.06,0,1.1,171.91c0,1.64.12,3.27.21,4.88l-2.19.12S880,1096.56,1385.67,1033.74Z"
          transform="translate(-588.52 -717.85)"/>
    <path class="cls-5"
          d="M1406.27,1747.67l-286.91,85.39V955a65.4,65.4,0,0,1,65.39-65.4h158l42.9,144.16C880,1096.56,1273.26,1577.5,1273.26,1577.5l2.19-.12C1280.39,1666.7,1346,1718.64,1406.27,1747.67Z"
          transform="translate(-588.52 -717.85)"/>
    <path class="cls-6"
          d="M1311.53,784.6l31.24,105h-158a65.4,65.4,0,0,0-65.39,65.4v878.08L944.92,1885a65.39,65.39,0,0,1-81.33-44L611.25,993a65.39,65.39,0,0,1,44-81.33L1230.2,740.58A65.39,65.39,0,0,1,1311.53,784.6Z"
          transform="translate(-588.52 -717.85)"/>
    <path class="cls-1"
          d="M1119.36,1833.06,944.92,1885a65.39,65.39,0,0,1-81.33-44L611.25,993a65.39,65.39,0,0,1,44-81.33L1230.2,740.58a65.39,65.39,0,0,1,81.33,44l31.24,105"
          transform="translate(-588.52 -717.85)"/>
    <path class="cls-1"
          d="M1871.6,1325.94v543.77a65.39,65.39,0,0,1-65.39,65.39H1184.75a65.39,65.39,0,0,1-65.39-65.39V955a65.4,65.4,0,0,1,65.39-65.4h621.46A65.4,65.4,0,0,1,1871.6,955v371Z"
          transform="translate(-588.52 -717.85)"/>
    <path class="cls-7" d="M1329.5,1539.62a60.25,60.25,0,0,1,120.5,0" transform="translate(-588.52 -717.85)"/>
    <path class="cls-7" d="M1603.5,1595.5a95.5,95.5,0,0,1-191,0" transform="translate(-588.52 -717.85)"/>
    <path class="cls-8"
          d="M1495.16,1401.66l12.34.06,234.38-1.16s4.07,0-1.11,171.91c0,.23,0,.47,0,.7C1735,1744.45,1508.07,1781,1508.07,1781h-.16s-48.75-7.85-101.64-33.34c-60.26-29-125.88-81-130.82-170.29-.09-1.61-.16-3.24-.21-4.88-5.16-171.88-1.1-171.91-1.1-171.91Z"
          transform="translate(-588.52 -717.85)"/>
    <path class="cls-7" d="M1561.5,1539.62a60.25,60.25,0,0,1,120.5,0" transform="translate(-588.52 -717.85)"/>
    <path class="cls-9"
          d="M1737.3,1577.5s1.22-1.5,3.45-4.33c17.86-22.8,100.33-132.24,130.85-247.23,13.48-50.79,16.83-102.66,0-148.63C1840.38,1092,1739.67,1027,1505.28,1027c-44.55,0-84.28,2.35-119.61,6.74C880,1096.56,1273.26,1577.5,1273.26,1577.5"
          transform="translate(-588.52 -717.85)"/>
</svg>