<svg id="Layer_2" data-name="Layer 2" xmlns="http://www.w3.org/2000/svg" viewBox="0 0 1757.39 1498.8">
    <defs>
        <style>
            .cls-1,
            .cls-10,
            .cls-11,
            .cls-3,
            .cls-4,
            .cls-5,
            .cls-8,
            .cls-9{fill:none;}.cls-1,.cls-10,
            .cls-11,
            .cls-3,
            .cls-4{stroke:#000;}.cls-1,
            .cls-10,
            .cls-11,
            .cls-2,
            .cls-3,
            .cls-4,
            .cls-5,
            .cls-6,
            .cls-8{stroke-miterlimit:10;}.cls-1,
            .cls-6{stroke-width:15px;}.cls-2,
            .cls-7{fill:#32cdff;}.cls-2,.cls-5,
            .cls-6,
            .cls-8,
            .cls-9{stroke:#FFF;}.cls-2,
            .cls-3{stroke-width:40px;}.cls-4{stroke-width:35px;}.cls-5{stroke-width:27px;}.cls-6{fill:#FFF;}.cls-11,
            .cls-8{stroke-width:39px;}.cls-9{stroke-linecap:round;stroke-linejoin:round;stroke-width:38px;}.cls-10{stroke-width:20px;}
        </style>
    </defs>
    <title>Logo</title>
    <path class="cls-1" d="M1670.5,1619.63a60.25,60.25,0,0,0-120.5,0" transform="translate(-621.31 -649.63)"/>
    <path class="cls-2"
          d="M1378.56,1849.25l633.37,213.58c38.13,12.86,77.52-10.62,88-52.45L2356.13,985.74c10.46-41.83-12-86.16-50.11-99L1672.64,673.15c-38.13-12.86-77.52,10.62-88,52.45L1328.45,1750.23C1318,1792.06,1340.42,1836.39,1378.56,1849.25Z"
          transform="translate(-621.31 -649.63)"/>
    <path id="FACE" class="cls-3" d="M1500.75,133" transform="translate(-621.31 -649.63)"/>
    <path id="FACE-2" data-name="FACE" class="cls-3" d="M1500.75,1670.45" transform="translate(-621.31 -649.63)"/>
    <path class="cls-3" d="M1699,1917" transform="translate(-621.31 -649.63)"/>
    <path class="cls-3" d="M1500,1917" transform="translate(-621.31 -649.63)"/>
    <path class="cls-4" d="M1632.5,1581.5" transform="translate(-621.31 -649.63)"/>
    <path class="cls-4" d="M1643.5,1589.5" transform="translate(-621.31 -649.63)"/>
    <rect class="cls-2" x="425.84" y="239.13" width="891.93" height="1239.67" rx="65.39"/>
    <path class="cls-4" d="M1643.5,1589.5" transform="translate(-621.31 -649.63)"/>
    <path class="cls-5" d="M1670.5,1619.63a60.25,60.25,0,0,0-120.5,0" transform="translate(-621.31 -649.63)"/>
    <path class="cls-6" d="M1396.5,1675.5a95.5,95.5,0,0,0,191,0" transform="translate(-621.31 -649.63)"/>
    <circle class="cls-7" cx="871.69" cy="1074.37" r="31"/>
    <path class="cls-8"
          d="M1491.5,1426.5l-233.38,54.06s-4.07,0,1.11,171.91S1491.93,1861,1491.93,1861h.16s227.51-36.63,232.67-208.51,1.1-171.91,1.1-171.91Z"
          transform="translate(-621.31 -649.63)"/>
    <path class="cls-9" d="M1259.55,1639.14s-455.85-553.78,235-553.78,235,553.78,235,553.78"
          transform="translate(-621.31 -649.63)"/>
    <path class="cls-10" d="M1079,1793" transform="translate(-621.31 -649.63)"/>
    <path class="cls-10" d="M1124,1786" transform="translate(-621.31 -649.63)"/>
    <path class="cls-11" d="M1492,1895.09" transform="translate(-621.31 -649.63)"/>
    <path class="cls-5" d="M1438.5,1619.63a60.25,60.25,0,0,0-120.5,0" transform="translate(-621.31 -649.63)"/>
    <path class="cls-1" d="M1329.5,1619.63a60.25,60.25,0,0,1,120.5,0" transform="translate(-621.31 -649.63)"/>
    <path class="cls-2"
          d="M1621.44,1849.25,988.07,2062.83c-38.13,12.86-77.52-10.62-88-52.45L643.87,985.74c-10.46-41.83,12-86.16,50.11-99l633.38-213.57c38.13-12.86,77.52,10.62,88,52.45l256.21,1024.63C1682,1792.06,1659.58,1836.39,1621.44,1849.25Z"
          transform="translate(-621.31 -649.63)"/>
    <path id="FACE-3" data-name="FACE" class="cls-3" d="M1499.25,133" transform="translate(-621.31 -649.63)"/>
    <path id="FACE-4" data-name="FACE" class="cls-3" d="M1499.25,1670.45" transform="translate(-621.31 -649.63)"/>
    <path class="cls-3" d="M1301,1917" transform="translate(-621.31 -649.63)"/>
    <path class="cls-3" d="M1500,1917" transform="translate(-621.31 -649.63)"/>
    <path class="cls-4" d="M1367.5,1581.5" transform="translate(-621.31 -649.63)"/>
    <path class="cls-4" d="M1356.5,1589.5" transform="translate(-621.31 -649.63)"/>
    <rect class="cls-2" x="439.61" y="239.13" width="891.93" height="1239.67" rx="65.39"/>
    <path class="cls-4" d="M1356.5,1589.5" transform="translate(-621.31 -649.63)"/>
    <path class="cls-5" d="M1329.5,1619.63a60.25,60.25,0,0,1,120.5,0" transform="translate(-621.31 -649.63)"/>
    <path class="cls-6" d="M1603.5,1675.5a95.5,95.5,0,0,1-191,0" transform="translate(-621.31 -649.63)"/>
    <circle class="cls-7" cx="885.69" cy="1074.37" r="31"/>
    <path class="cls-8"
          d="M1508.5,1426.5l233.38,54.06s4.07,0-1.11,171.91S1508.07,1861,1508.07,1861h-.16s-227.51-36.63-232.67-208.51-1.1-171.91-1.1-171.91Z"
          transform="translate(-621.31 -649.63)"/>
    <path class="cls-9" d="M1740.45,1639.14s455.85-553.78-235-553.78-235,553.78-235,553.78"
          transform="translate(-621.31 -649.63)"/>
    <path class="cls-10" d="M1921,1793" transform="translate(-621.31 -649.63)"/>
    <path class="cls-10" d="M1876,1786" transform="translate(-621.31 -649.63)"/>
    <path class="cls-11" d="M1508,1895.09" transform="translate(-621.31 -649.63)"/>
    <path class="cls-5" d="M1561.5,1619.63a60.25,60.25,0,0,1,120.5,0" transform="translate(-621.31 -649.63)"/>
</svg>