<svg id="Layer_2" data-name="Layer 2" xmlns="http://www.w3.org/2000/svg" viewBox="0 0 1847.39 1548.8">
    <defs>
        <style>
            .cls-1,
            .cls-10,
            .cls-11,
            .cls-3,
            .cls-4,
            .cls-5,
            .cls-8,
            .cls-9{fill:none;}.cls-1,
            .cls-10,
            .cls-11,
            .cls-3,
            .cls-4{stroke:#000;}.cls-1,
            .cls-10,
            .cls-11,
            .cls-2,
            .cls-3,
            .cls-4,
            .cls-5,
            .cls-6,
            .cls-8{stroke-miterlimit:10;}.cls-1{stroke-width:15px;}.cls-2,
            .cls-7{fill:#32cdff;}.cls-2,
            .cls-5,
            .cls-6,
            .cls-8,
            .cls-9{stroke:#FFF;}.cls-2{stroke-width:90px;}.cls-3,
            .cls-5{stroke-width:40px;}.cls-4{stroke-width:35px;}.cls-6{fill:#FFF;stroke-width:25px;}.cls-8{stroke-width:56px;}.cls-9{stroke-linecap:round;stroke-linejoin:round;stroke-width:70px;}.cls-10{stroke-width:20px;}.cls-11{stroke-width:39px;}
        </style>
    </defs>
    <title>stroke mare</title>
    <path class="cls-1" d="M1670.5,1619.63a60.25,60.25,0,0,0-120.5,0" transform="translate(-576.31 -624.63)"/>
    <path class="cls-2"
          d="M1398.56,1849.25l633.37,213.58c38.13,12.86,77.52-10.62,88-52.45L2376.13,985.74c10.46-41.83-12-86.16-50.11-99L1692.64,673.15c-38.13-12.86-77.52,10.62-88,52.45L1348.45,1750.23C1338,1792.06,1360.42,1836.39,1398.56,1849.25Z"
          transform="translate(-576.31 -624.63)"/>
    <path id="FACE" class="cls-3" d="M1500.75,133" transform="translate(-576.31 -624.63)"/>
    <path id="FACE-2" data-name="FACE" class="cls-3" d="M1500.75,1670.45" transform="translate(-576.31 -624.63)"/>
    <path class="cls-3" d="M1699,1917" transform="translate(-576.31 -624.63)"/>
    <path class="cls-3" d="M1500,1917" transform="translate(-576.31 -624.63)"/>
    <path class="cls-4" d="M1632.5,1581.5" transform="translate(-576.31 -624.63)"/>
    <path class="cls-4" d="M1643.5,1589.5" transform="translate(-576.31 -624.63)"/>
    <rect class="cls-2" x="458.7" y="230.37" width="916.22" height="1273.43" rx="65.39"/>
    <path class="cls-4" d="M1643.5,1589.5" transform="translate(-576.31 -624.63)"/>
    <path class="cls-5" d="M1670.5,1619.63a60.25,60.25,0,0,0-120.5,0" transform="translate(-576.31 -624.63)"/>
    <path class="cls-6" d="M1396.5,1675.5a95.5,95.5,0,0,0,191,0" transform="translate(-576.31 -624.63)"/>
    <circle class="cls-7" cx="916.69" cy="1099.37" r="31"/>
    <path class="cls-8"
          d="M1491.5,1426.5l-233.38,54.06s-4.07,0,1.11,171.91S1491.93,1861,1491.93,1861h.16s227.51-36.63,232.67-208.51,1.1-171.91,1.1-171.91Z"
          transform="translate(-576.31 -624.63)"/>
    <path class="cls-9" d="M1251.37,1625S780.62,1085.36,1494,1085.36,1736.63,1625,1736.63,1625"
          transform="translate(-576.31 -624.63)"/>
    <path class="cls-10" d="M1079,1793" transform="translate(-576.31 -624.63)"/>
    <path class="cls-10" d="M1124,1786" transform="translate(-576.31 -624.63)"/>
    <path class="cls-11" d="M1492,1895.09" transform="translate(-576.31 -624.63)"/>
    <path class="cls-5" d="M1438.5,1619.63a60.25,60.25,0,0,0-120.5,0" transform="translate(-576.31 -624.63)"/>
    <path class="cls-1" d="M1329.5,1619.63a60.25,60.25,0,0,1,120.5,0" transform="translate(-576.31 -624.63)"/>
    <path class="cls-2"
          d="M1601.44,1849.25,968.07,2062.83c-38.13,12.86-77.52-10.62-88-52.45L623.87,985.74c-10.46-41.83,12-86.16,50.11-99l633.38-213.57c38.13-12.86,77.52,10.62,88,52.45l256.21,1024.63C1662,1792.06,1639.58,1836.39,1601.44,1849.25Z"
          transform="translate(-576.31 -624.63)"/>
    <path id="FACE-3" data-name="FACE" class="cls-3" d="M1499.25,133" transform="translate(-576.31 -624.63)"/>
    <path id="FACE-4" data-name="FACE" class="cls-3" d="M1499.25,1670.45" transform="translate(-576.31 -624.63)"/>
    <path class="cls-3" d="M1301,1917" transform="translate(-576.31 -624.63)"/>
    <path class="cls-3" d="M1500,1917" transform="translate(-576.31 -624.63)"/>
    <path class="cls-4" d="M1367.5,1581.5" transform="translate(-576.31 -624.63)"/>
    <path class="cls-4" d="M1356.5,1589.5" transform="translate(-576.31 -624.63)"/>
    <rect class="cls-2" x="472.47" y="230.37" width="916.22" height="1273.43" rx="65.39"/>
    <path class="cls-4" d="M1356.5,1589.5" transform="translate(-576.31 -624.63)"/>
    <path class="cls-5" d="M1329.5,1619.63a60.25,60.25,0,0,1,120.5,0" transform="translate(-576.31 -624.63)"/>
    <path class="cls-6" d="M1603.5,1675.5a95.5,95.5,0,0,1-191,0" transform="translate(-576.31 -624.63)"/>
    <circle class="cls-7" cx="930.69" cy="1099.37" r="31"/>
    <path class="cls-8"
          d="M1508.5,1426.5l233.38,54.06s4.07,0-1.11,171.91S1508.07,1861,1508.07,1861h-.16s-227.51-36.63-232.67-208.51-1.1-171.91-1.1-171.91Z"
          transform="translate(-576.31 -624.63)"/>
    <path class="cls-9" d="M1748.63,1625s470.75-539.64-242.63-539.64S1263.37,1625,1263.37,1625"
          transform="translate(-576.31 -624.63)"/>
    <path class="cls-10" d="M1921,1793" transform="translate(-576.31 -624.63)"/>
    <path class="cls-10" d="M1876,1786" transform="translate(-576.31 -624.63)"/>
    <path class="cls-11" d="M1508,1895.09" transform="translate(-576.31 -624.63)"/>
    <path class="cls-5" d="M1561.5,1619.63a60.25,60.25,0,0,1,120.5,0" transform="translate(-576.31 -624.63)"/>
</svg>