<svg id="Layer_2" data-name="Layer 2" xmlns="http://www.w3.org/2000/svg" viewBox="0 0 1907.39 1549.08">
    <defs>
        <style>
            .cls-1,
            .cls-3,
            .cls-4,
            .cls-5,
            .cls-7,
            .cls-8,
            .cls-9{fill:none;}
            .cls-1,
            .cls-3,
            .cls-4,
            .cls-7,
            .cls-8{stroke:#000;}
            .cls-1,
            .cls-2,
            .cls-3,
            .cls-4,
            .cls-5,
            .cls-6,
            .cls-7,
            .cls-8,
            .cls-9{stroke-miterlimit:10;}
            .cls-1{stroke-width:15px;}
            .cls-2{fill:#fff;stroke-width:90px;}
            .cls-2,
            .cls-5,
            .cls-6,
            .cls-9{stroke:#32cdff;}
            .cls-3,
            .cls-9{stroke-width:40px;}
            .cls-4{stroke-width:35px;}
            .cls-5{stroke-width:60px;}
            .cls-6{fill:#32cdff;stroke-width:25px;}
            .cls-7{stroke-width:20px;}.cls-8{stroke-width:39px;}
        </style>
    </defs>
    <title>no face filter 3</title>
    <path class="cls-1" d="M1670.5,1619.63a60.25,60.25,0,0,0-120.5,0" transform="translate(-546.31 -624.63)"/>
    <path class="cls-2"
          d="M1428.56,1849.25l633.37,213.58c38.13,12.86,77.52-10.62,88-52.45L2406.13,985.74c10.46-41.83-12-86.16-50.11-99L1722.64,673.15c-38.13-12.86-77.52,10.62-88,52.45L1378.45,1750.23C1368,1792.06,1390.42,1836.39,1428.56,1849.25Z"
          transform="translate(-546.31 -624.63)"/>
    <path id="FACE" class="cls-3" d="M1500.75,133" transform="translate(-546.31 -624.63)"/>
    <path id="FACE-2" data-name="FACE" class="cls-3" d="M1500.75,1670.45" transform="translate(-546.31 -624.63)"/>
    <path class="cls-3" d="M1699,1917" transform="translate(-546.31 -624.63)"/>
    <path class="cls-3" d="M1500,1917" transform="translate(-546.31 -624.63)"/>
    <path class="cls-4" d="M1632.5,1581.5" transform="translate(-546.31 -624.63)"/>
    <path class="cls-4" d="M1643.5,1589.5" transform="translate(-546.31 -624.63)"/>
    <rect class="cls-2" x="496.21" y="230.66" width="916.22" height="1273.43" rx="65.39"/>
    <path class="cls-4" d="M1643.5,1589.5" transform="translate(-546.31 -624.63)"/>
    <path class="cls-5" d="M1570,1429.63c0-57.79,52.58-104.63,117.44-104.63s117.44,46.84,117.44,104.63"
          transform="translate(-546.31 -624.63)"/>
    <path class="cls-6" d="M1345,1534a147,147,0,0,0,294,0" transform="translate(-546.31 -624.63)"/>
    <path class="cls-7" d="M1079,1793" transform="translate(-546.31 -624.63)"/>
    <path class="cls-7" d="M1124,1786" transform="translate(-546.31 -624.63)"/>
    <path class="cls-8" d="M1492,1895.09" transform="translate(-546.31 -624.63)"/>
    <path class="cls-5" d="M1412.88,1429.63c0-57.79-52.81-104.63-117.94-104.63S1177,1371.84,1177,1429.63"
          transform="translate(-546.31 -624.63)"/>
    <path class="cls-9" d="M1775,1148" transform="translate(-546.31 -624.63)"/>
    <path class="cls-9" d="M3109,777" transform="translate(-546.31 -624.63)"/>
    <path class="cls-9" d="M2534,977" transform="translate(-546.31 -624.63)"/>
    <path class="cls-9" d="M1501,1559" transform="translate(-546.31 -624.63)"/>
    <path class="cls-9" d="M505,1195" transform="translate(-546.31 -624.63)"/>
    <path class="cls-9" d="M323,1409" transform="translate(-546.31 -624.63)"/>
    <path class="cls-1" d="M1329.5,1619.63a60.25,60.25,0,0,1,120.5,0" transform="translate(-546.31 -624.63)"/>
    <path class="cls-2"
          d="M1571.44,1849.25,938.07,2062.83c-38.13,12.86-77.52-10.62-88-52.45L593.87,985.74c-10.46-41.83,12-86.16,50.11-99l633.38-213.57c38.13-12.86,77.52,10.62,88,52.45l256.21,1024.63C1632,1792.06,1609.58,1836.39,1571.44,1849.25Z"
          transform="translate(-546.31 -624.63)"/>
    <path id="FACE-3" data-name="FACE" class="cls-3" d="M1499.25,133" transform="translate(-546.31 -624.63)"/>
    <path id="FACE-4" data-name="FACE" class="cls-3" d="M1499.25,1670.45" transform="translate(-546.31 -624.63)"/>
    <path class="cls-3" d="M1301,1917" transform="translate(-546.31 -624.63)"/>
    <path class="cls-3" d="M1500,1917" transform="translate(-546.31 -624.63)"/>
    <path class="cls-4" d="M1367.5,1581.5" transform="translate(-546.31 -624.63)"/>
    <path class="cls-4" d="M1356.5,1589.5" transform="translate(-546.31 -624.63)"/>
    <rect class="cls-2" x="494.95" y="230.66" width="916.22" height="1273.43" rx="65.39"/>
    <path class="cls-4" d="M1356.5,1589.5" transform="translate(-546.31 -624.63)"/>
    <path class="cls-5" d="M1430,1429.63c0-57.79-52.58-104.63-117.44-104.63s-117.43,46.84-117.43,104.63"
          transform="translate(-546.31 -624.63)"/>
    <path class="cls-6" d="M1655,1534a147,147,0,0,1-294,0" transform="translate(-546.31 -624.63)"/>
    <path class="cls-7" d="M1921,1793" transform="translate(-546.31 -624.63)"/>
    <path class="cls-7" d="M1876,1786" transform="translate(-546.31 -624.63)"/>
    <path class="cls-8" d="M1508,1895.09" transform="translate(-546.31 -624.63)"/>
    <path class="cls-5" d="M1587.13,1429.63c0-57.79,52.8-104.63,117.93-104.63S1823,1371.84,1823,1429.63"
          transform="translate(-546.31 -624.63)"/>
    <path class="cls-9" d="M1225,1148" transform="translate(-546.31 -624.63)"/>
    <path class="cls-9" d="M-109,777" transform="translate(-546.31 -624.63)"/>
    <path class="cls-9" d="M466,977" transform="translate(-546.31 -624.63)"/>
    <path class="cls-9" d="M1499,1559" transform="translate(-546.31 -624.63)"/>
    <path class="cls-9" d="M2495,1195" transform="translate(-546.31 -624.63)"/>
    <path class="cls-9" d="M2677,1409" transform="translate(-546.31 -624.63)"/>
</svg>